<svg width="425" height="425" viewBox="0 0 425 425" fill="none" xmlns="http://www.w3.org/2000/svg">
<path d="M424.132 353.421L353.421 424.132L212 282.711L282.711 212L424.132 353.421Z" fill="#D9D9D9"/>
<path d="M353.421 0L424.132 70.7107L282.711 212.132L212 141.421L353.421 0Z" fill="#D9D9D9"/>
<path d="M191 262V162H424V262H191Z" fill="#D9D9D9"/>
<path d="M162 0H262V200H162V0Z" fill="#D9D9D9"/>
<path d="M162 224H262V424H162V224Z" fill="#D9D9D9"/>
<path d="M0 262V162H200V262H0Z" fill="#D9D9D9"/>
<path d="M0 70.7107L70.7107 1.64509e-05L212.132 141.421L141.421 212.132L0 70.7107Z" fill="#D9D9D9"/>
<path d="M70.7107 424.132L1.64509e-05 353.421L141.421 212L212.132 282.711L70.7107 424.132Z" fill="#D9D9D9"/>
</svg>
