<svg id="visual" viewBox="0 0 900 600" width="900" height="600" xmlns="http://www.w3.org/2000/svg" xmlns:xlink="http://www.w3.org/1999/xlink" version="1.1"><rect x="0" y="0" width="900" height="600" fill="#f7f7f7"></rect><g fill="#9DB0EA"><path d="M13.2 7.6L13.2 34.1L-13.2 34.1L-13.2 7.6L-36.1 -5.6L-22.9 -28.5L0 -15.3L22.9 -28.5L36.1 -5.6Z" transform="translate(498 380)"></path><path d="M6.7 3.9L6.7 17.4L-6.7 17.4L-6.7 3.9L-18.4 -2.9L-11.7 -14.5L0 -7.8L11.7 -14.5L18.4 -2.9Z" transform="translate(610 40)"></path><path d="M11.3 6.5L11.3 29.2L-11.3 29.2L-11.3 6.5L-31 -4.8L-19.6 -24.4L0 -13.1L19.6 -24.4L31 -4.8Z" transform="translate(309 415)"></path><path d="M9.7 5.6L9.7 25L-9.7 25L-9.7 5.6L-26.5 -4.1L-16.8 -20.9L0 -11.2L16.8 -20.9L26.5 -4.1Z" transform="translate(37 419)"></path><path d="M8.6 5L8.6 22.3L-8.6 22.3L-8.6 5L-23.6 -3.6L-15 -18.6L0 -10L15 -18.6L23.6 -3.6Z" transform="translate(542 144)"></path><path d="M10.8 6.2L10.8 27.8L-10.8 27.8L-10.8 6.2L-29.5 -4.6L-18.7 -23.3L0 -12.5L18.7 -23.3L29.5 -4.6Z" transform="translate(722 35)"></path></g></svg>